<svg width="1160" height="270" viewBox="0 0 1160 270" fill="none" xmlns="http://www.w3.org/2000/svg">
<path d="M298.333 65.6195V230.907H337.471V164.723H403.309V133.403H337.471V97.7397H414.833L414.947 65.6195H298.333Z" fill="#152973"/>
<path d="M421.291 230.907H460.086L472.637 195.701H528.32L540.529 230.907H578.982L520.333 65.6195H480.054L421.291 230.907ZM480.967 162.209L500.251 102.998L519.306 162.209H480.967Z" fill="#152973"/>
<path d="M660.946 63.3333C613.821 63.3333 584.268 95.6821 584.268 146.549C584.268 197.301 614.278 233.193 661.174 233.193C709.897 233.193 726.099 205.302 730.435 172.611L689.814 172.268C686.848 188.614 676.35 201.645 659.919 201.645C639.837 201.645 626.829 185.642 626.829 147.12C626.829 108.713 639.951 94.882 659.691 94.882C676.921 94.882 687.076 105.398 689.928 121.744L730.549 121.515C727.012 87.6807 699.285 63.3333 660.946 63.3333Z" fill="#152973"/>
<path d="M751.657 230.907H773.679V206.445H751.657V230.907Z" fill="#152973"/>
<path d="M857.984 270C894.383 270 914.693 256.398 914.693 233.993C914.693 216.047 903.283 204.045 877.267 202.445C866.427 201.759 857.527 201.302 851.366 200.959C834.25 199.701 828.317 198.33 828.317 193.757C828.317 189.757 833.908 185.527 852.05 185.07C853.762 185.184 856.272 185.184 857.87 185.184C890.731 185.184 905.907 168.267 905.907 148.263C905.907 143.462 903.739 135.575 901.685 131.232L922.452 127.117V109.285C916.975 111.571 898.034 119.458 893.584 121.401C884.57 114.543 874.985 110.885 859.809 110.885C829.686 110.885 809.718 124.716 809.718 148.378C809.718 162.666 815.879 172.954 831.283 180.841C818.047 184.041 811.315 190.328 811.315 197.53C811.315 206.103 818.732 209.189 822.84 211.704C819.759 214.104 800.703 221.077 800.703 238.337C800.703 257.769 820.672 270 857.984 270ZM858.44 173.068C838.7 173.068 827.518 164.152 827.518 148.378C827.518 132.489 838.814 122.659 858.44 122.659C876.582 122.659 888.792 131.46 888.792 148.378C888.792 164.381 878.522 173.068 858.44 173.068ZM861.293 257.883C833.68 257.883 818.504 250.568 818.504 236.394C818.504 224.392 831.512 215.476 839.955 216.047L874.757 218.219C891.074 219.248 897.235 225.763 897.235 236.279C897.235 250.911 882.059 257.883 861.293 257.883Z" fill="#152973"/>
<path d="M990.677 233.193C1024.22 233.193 1043.74 208.16 1043.74 172.268C1043.74 136.147 1024.34 110.428 990.906 110.428C957.701 110.428 937.619 136.032 937.619 172.611C937.619 208.389 956.903 233.193 990.677 233.193ZM991.134 218.791C966.83 218.791 955.419 198.444 955.419 171.81C955.419 144.948 966.83 124.83 990.906 124.83C1014.87 124.83 1025.94 144.834 1025.94 171.81C1025.94 198.673 1015.21 218.791 991.134 218.791Z" fill="#152973"/>
<path d="M1160 112.714H1143.34L1110.14 208.846H1107.85L1075.11 112.714H1058.11L1100.21 230.907H1118.12L1160 112.714Z" fill="#152973"/>
<path d="M38.7197 214.172V150.478L95.9574 186.317C95.9574 186.317 234.755 113.424 250 104.43C250 93.3544 245 85.443 236.667 78.5324L149.167 8.02652C142.709 3.05779 134.417 -0.217147 126.682 0.0112291C118.947 -0.217147 110.97 3.05779 104.513 8.02652L13.0032 78.5324C4.79594 84.8467 0 94.5126 0 104.74V218.274C0 236.674 14.9072 250 33.6693 250H95.9574L38.7197 214.172Z" fill="#152973"/>
<path d="M95 250H216.304C234.741 250 250 235.86 250 216.587V162.5C208.071 188.8 95 250 95 250Z" fill="#56B833"/>
</svg>
