<svg width="23" height="23" viewBox="0 0 23 23" fill="none" xmlns="http://www.w3.org/2000/svg">
<g clip-path="url(#clip0_2711_15320)">
<path d="M8.33604 22.842L3.71951 18.2453C3.61757 18.1438 3.56094 18.0068 3.56094 17.8635V13.3136C3.56094 12.8332 4.14424 12.5924 4.48572 12.9313L8.53991 16.9551C8.60051 17.0155 8.69508 17.0256 8.76757 16.9799L22.6546 8.16371C22.4558 7.78366 22.1777 7.4442 21.8306 7.17241L17.2486 3.59236L13.4798 0.648917C12.8988 0.194996 12.196 -0.0198417 11.5 0.00102179C10.804 -0.0198417 10.1012 0.194432 9.52019 0.648353L5.75198 3.59292L1.16999 7.17298C0.431526 7.74983 0 8.63286 0 9.5672V19.9392C0 21.6201 1.36876 22.983 3.05693 22.983L8.62995 22.992C8.52179 22.974 8.41816 22.9243 8.33604 22.842Z" fill="#152973"/>
<path d="M22.7497 14.1973L9.01104 22.9154C8.94762 22.9554 8.87853 22.9808 8.80774 22.9926L9.61076 22.9937V22.9999L11.5005 22.9971L13.3903 22.9999V22.9937L19.9436 22.983C21.6318 22.983 23.0005 21.6201 23.0005 19.9392V14.0535C22.9071 14.1093 22.8114 14.1583 22.7497 14.1973Z" fill="#56B833"/>
</g>
<defs>
<clipPath id="clip0_2711_15320">
<rect width="23" height="23" fill="white"/>
</clipPath>
</defs>
</svg>
