<svg xmlns="http://www.w3.org/2000/svg" width="109" height="36" viewBox="0 0 109 36" fill="none">
    <path d="M43.7656 9.42851V34.3379H49.6727V24.3638H59.6097V19.6438H49.6727V14.2691H61.3491L61.3663 9.42851H43.7656Z" fill="#152973"/>
    <path d="M62.3237 34.3379H68.1791L70.0735 29.0322H78.4778L80.3205 34.3379H86.1243L77.2723 9.42851H71.193L62.3237 34.3379ZM71.3307 23.9849L74.2412 15.0616L77.1173 23.9849H71.3307Z" fill="#152973"/>
    <path d="M98.4952 9.08398C91.3826 9.08398 86.9221 13.9591 86.9221 21.6248C86.9221 29.2734 91.4515 34.6825 98.5296 34.6825C105.883 34.6825 108.329 30.4792 108.983 25.5525L102.852 25.5008C102.405 27.9642 100.82 29.928 98.3402 29.928C95.3091 29.928 93.3459 27.5163 93.3459 21.711C93.3459 15.9229 95.3264 13.8385 98.3057 13.8385C100.906 13.8385 102.439 15.4233 102.87 17.8867L109 17.8522C108.467 12.7532 104.282 9.08398 98.4952 9.08398Z" fill="#152973"/>
    <path d="M5.55984 30.7534V21.6074L13.7787 26.7537C13.7787 26.7537 33.7089 16.2869 35.898 14.9954C35.898 13.405 35.1801 12.269 33.9835 11.2766L21.4192 1.15255C20.4919 0.439075 19.3013 -0.0311807 18.1905 0.00161241C17.0798 -0.0311807 15.9345 0.439075 15.0072 1.15255L1.86715 11.2766C0.688659 12.1833 0 13.5713 0 15.0399V31.3424C0 33.9845 2.14056 35.898 4.83464 35.898H13.7787L5.55984 30.7534Z" fill="#152973"/>
    <path d="M13.6413 35.898H31.0596C33.7069 35.898 35.898 33.8677 35.898 31.1001V23.3337C29.8774 27.1102 13.6413 35.898 13.6413 35.898Z" fill="#00A91C"/>
</svg>