<svg width="150" height="150" viewBox="0 0 150 150" fill="none" xmlns="http://www.w3.org/2000/svg">
<path d="M23.2318 128.503V90.2866L57.5745 111.79C57.5745 111.79 140.853 68.0547 150 62.6582C150 56.0127 147 51.2658 142 47.1194L89.5 4.81591C85.6255 1.83468 80.6503 -0.130288 76.0092 0.00673748C71.3681 -0.130288 66.5821 1.83468 62.7076 4.81591L7.8019 47.1194C2.87756 50.908 0 56.7075 0 62.8441V130.964C0 142.004 8.94432 150 20.2016 150H57.5745L23.2318 128.503Z" fill="#152973"/>
<path d="M57 150H129.783C140.844 150 150 141.516 150 129.952V97.5C124.843 113.28 57 150 57 150Z" fill="#56B833"/>
</svg>
